PathFileType  4	(X/Y/Z) C:\Users\antoi\Documents\MyRepositories\mobilecap\ResultsAnalysis
DataRate	CameraRate	NumFrames	NumMarkers	Units	OrigDataRate	OrigDataStartFrame	OrigNumFrames
100.0	100.0	4	51	mm	100.0	123	245
Frame#	Time	r_knee			r_shank_antsup			r_ankle			r_calc			r_5meta			r_toe			L_knee			L_shank_antsup			L_ankle			L_calc			L_5meta			L_toe			r_sh2			r_sh3			r_sh4			L_sh2			L_sh3			r_thigh1			r_thigh2			r_thigh3			r_thigh4			r_thigh5			L_thigh1			L_thigh2			L_thigh3			L_thigh4			r.ASIS			r.PSIS			L.ASIS			L.PSIS			C7			R_Shoulder			L_Shoulder			R_Sternum			L_Sternum			R_humerus			R_elbow_med			R_elbow_lat			R_forearm			R_wrist_radius			R_wrist_ulna			L_humerus			L_elbow_med			L_elbow_lat			L_forearm			L_wrist_radius			L_wrist_ulna			R_HJC			L_HJC			R_HJC_reg			L_HJC_reg			
		X1	Y1	Z1	X2	Y2	Z2	X3	Y3	Z3	X4	Y4	Z4	X5	Y5	Z5	X6	Y6	Z6	X7	Y7	Z7	X8	Y8	Z8	X9	Y9	Z9	X10	Y10	Z10	X11	Y11	Z11	X12	Y12	Z12	X13	Y13	Z13	X14	Y14	Z14	X15	Y15	Z15	X16	Y16	Z16	X17	Y17	Z17	X18	Y18	Z18	X19	Y19	Z19	X20	Y20	Z20	X21	Y21	Z21	X22	Y22	Z22	X23	Y23	Z23	X24	Y24	Z24	X25	Y25	Z25	X26	Y26	Z26	X27	Y27	Z27	X28	Y28	Z28	X29	Y29	Z29	X30	Y30	Z30	X31	Y31	Z31	X32	Y32	Z32	X33	Y33	Z33	X34	Y34	Z34	X35	Y35	Z35	X36	Y36	Z36	X37	Y37	Z37	X38	Y38	Z38	X39	Y39	Z39	X40	Y40	Z40	X41	Y41	Z41	X42	Y42	Z42	X43	Y43	Z43	X44	Y44	Z44	X45	Y45	Z45	X46	Y46	Z46	X47	Y47	Z47	X48	Y48	Z48	X49	Y49	Z49	X50	Y50	Z50	X51	Y51	Z51	

123	1.22000000	-224.94840	589.78369	-414.17771	-181.82391	467.06107	-420.31228	-294.60731	142.48661	-417.79899	-363.69145	138.73357	-475.58546	-195.76648	34.68237	-383.47205	-141.53521	58.27615	-447.07952	-262.24274	574.39122	-825.93112	-199.35479	477.88464	-818.13351	-274.75904	133.97162	-797.82039	-336.73751	130.66694	-738.20345	-163.90210	28.09796	-819.76698	-115.30562	51.25147	-758.90526	-184.32193	352.46329	-440.77994	-242.89044	459.16456	-371.15168	-237.96213	342.10257	-375.56378	-285.38101	470.52142	-845.94628	-256.55076	352.65230	-859.78612	-243.65977	842.71407	-451.06471	-193.94097	740.03803	-457.63193	-204.48954	707.34233	-398.68465	-314.10327	801.45471	-370.02357	-257.33833	696.95606	-383.06866	-299.93554	839.05105	-820.14339	-228.90556	720.41324	-819.30537	-393.63978	782.11094	-850.14397	-321.48180	663.93491	-847.24546	-334.17543	1018.05403	-472.07096	-517.35864	1115.82699	-549.12042	-347.30631	1009.62024	-734.67532	-521.36100	1117.02675	-646.94941	-210.98447	1533.31192	-600.78792	-187.64247	1463.71251	-416.66023	-175.39541	1468.92377	-766.08595	-133.22593	1391.61463	-570.28812	-136.21422	1386.83514	-619.85594	-330.69173	1411.89207	-334.82838	-561.95516	1428.90822	-411.03960	-542.50683	1421.55336	-327.52895	-650.70096	1277.71703	-330.91629	-746.86089	1205.57738	-335.03079	-771.44316	1230.49936	-311.13007	-311.80485	1409.48497	-877.49825	-537.92727	1397.67821	-843.32744	-511.38634	1380.31163	-918.83745	-572.26514	1218.63179	-889.10239	-643.27216	1125.10820	-900.55630	-666.25826	1142.34964	-940.13637	-439.40709	969.61595	-500.23079	-450.90373	953.20555	-712.67945	-431.65345	961.69357	-506.09289	-438.75371	963.81815	-679.55985	
124	1.23000000	-202.23595	570.29999	-413.48590	-167.45423	444.93541	-421.46816	-306.13283	130.81344	-421.98144	-377.06468	117.65236	-477.69290	-199.77442	32.40992	-383.47330	-147.03906	57.55417	-449.19632	-239.76204	554.91052	-829.99544	-181.14953	454.99406	-819.59354	-294.61974	123.46141	-788.46081	-351.80997	107.26126	-733.70223	-168.34565	29.22041	-819.44887	-121.73491	53.59220	-756.45180	-181.49160	331.12934	-443.74295	-228.76030	441.39433	-372.84037	-234.81360	324.56307	-377.96814	-266.47596	455.58354	-849.80219	-250.27513	335.69739	-858.81433	-231.70409	822.58423	-448.87205	-178.06146	722.25252	-454.73019	-187.47146	689.34155	-395.90709	-301.48972	777.99252	-369.22246	-239.92318	676.63055	-380.47765	-289.60984	817.70171	-823.79530	-212.82625	702.46158	-825.99412	-381.07957	756.31522	-852.09708	-303.67307	641.75970	-850.65939	-327.95416	989.93972	-472.58283	-511.53379	1087.80606	-548.85650	-341.03397	981.83183	-734.65126	-515.43155	1088.92399	-647.78514	-199.49071	1502.95363	-601.49448	-176.13771	1433.21794	-416.59778	-164.51208	1437.81658	-767.41775	-121.52037	1361.23893	-570.91056	-124.63983	1356.35994	-620.40000	-319.94390	1380.31841	-335.74795	-550.30466	1398.40597	-412.99501	-531.45994	1389.97016	-329.27924	-640.34655	1246.68212	-334.94097	-736.57174	1175.47484	-340.12102	-761.20538	1199.76137	-316.02208	-301.71062	1377.10987	-877.48201	-527.21967	1364.56638	-842.26654	-501.31676	1347.52376	-917.58705	-561.83498	1185.87370	-886.64649	-632.11629	1091.89412	-898.30878	-655.17173	1108.94931	-938.16043	-433.26856	941.50915	-500.58463	-444.63537	925.27113	-713.05497	-425.50959	933.95733	-506.60300	-432.33734	935.91571	-679.72212	
125	1.24000000	-181.65836	553.29906	-413.32830	-156.10009	426.49541	-422.31146	-312.70120	121.19185	-425.36143	-385.97109	99.30663	-480.98270	-201.87254	31.96195	-383.19503	-150.13846	57.28695	-450.41973	-215.15497	539.73457	-834.93782	-164.67442	436.75074	-819.59915	-307.26857	116.91299	-780.95041	-362.00903	88.65198	-727.09066	-171.63511	31.40437	-818.20065	-126.25927	55.71308	-754.12417	-178.41187	313.65384	-445.07647	-218.11659	426.86339	-375.21956	-232.67514	310.81313	-379.72067	-248.66334	445.63200	-851.99480	-246.20706	323.91489	-854.18399	-221.59583	804.47118	-446.61032	-163.89523	706.65241	-452.08968	-172.45049	673.17070	-393.52318	-290.35304	756.72315	-368.29570	-224.39464	658.31064	-378.44681	-280.54734	798.87499	-829.10467	-198.80379	686.70109	-833.31926	-370.15476	733.47670	-853.65825	-288.03500	622.31710	-854.30767	-322.79441	962.16516	-472.75201	-506.65819	1060.25231	-548.10274	-335.92272	953.91267	-734.12872	-510.94008	1060.96881	-648.79570	-187.71354	1472.38710	-602.26863	-164.40424	1402.06423	-416.60953	-153.21422	1406.17804	-769.17457	-109.50267	1330.45322	-571.78293	-112.81102	1325.58998	-621.04865	-308.80827	1347.39539	-336.68133	-538.64487	1366.53823	-414.24419	-520.04221	1356.57978	-330.60109	-629.54535	1213.79307	-338.46345	-725.98151	1143.27150	-344.94832	-750.40674	1167.09501	-320.49962	-291.14563	1343.59628	-877.74647	-516.20371	1330.19298	-841.51653	-490.74950	1313.32003	-916.87145	-550.65125	1151.72449	-884.50319	-620.38029	1057.31070	-896.64510	-643.62435	1074.23943	-936.52872	-428.30221	913.83984	-500.42808	-439.63855	897.30124	-712.87618	-420.18923	906.94977	-506.15522	-427.52296	908.18499	-678.80349	
126	1.25000000	-167.73110	537.66667	-412.28077	-146.46367	409.80606	-421.38046	-314.82522	112.02249	-428.76932	-390.54053	84.56191	-486.20502	-202.98434	32.37255	-383.66016	-151.43471	57.25339	-451.41437	-195.02290	527.47687	-839.44928	-149.13565	422.11099	-819.34515	-303.02312	108.58963	-779.62535	-364.10176	79.38372	-720.35770	-172.61227	32.82856	-816.55339	-126.68096	55.98022	-752.15397	-173.11357	298.06485	-445.56859	-209.51951	412.48826	-375.99051	-228.72967	297.04392	-381.34755	-231.41469	433.74370	-854.62504	-234.37535	312.07566	-852.92617	-214.31544	787.47291	-444.25582	-153.10549	691.42356	-449.68617	-161.29163	657.48279	-391.26192	-282.06199	737.40504	-366.98480	-212.82107	641.01752	-376.50549	-274.03796	782.05120	-834.82394	-188.64967	672.66633	-840.36135	-362.12664	713.55435	-854.99087	-276.30686	605.32873	-858.37276	-318.68634	935.41780	-472.59893	-502.15906	1034.43037	-548.22155	-331.83194	926.48274	-733.09152	-507.30325	1034.47973	-649.60960	-175.34101	1442.11507	-603.01800	-152.21312	1370.65585	-416.52032	-141.33121	1374.40761	-771.08027	-97.28502	1299.31334	-572.62376	-100.83074	1294.92675	-621.85230	-297.05504	1313.32788	-337.82852	-526.70324	1333.25916	-414.72058	-508.12854	1321.51755	-331.37272	-618.00961	1179.13529	-341.73152	-714.68665	1109.21653	-349.33881	-738.83691	1132.73495	-324.47084	-279.92404	1308.96710	-877.97440	-504.80605	1294.78117	-841.24698	-479.44554	1277.85680	-916.79419	-538.28289	1116.07703	-883.43077	-608.05793	1021.67751	-895.38938	-631.41849	1038.40298	-935.41047	-424.67788	887.70754	-499.94190	-435.89076	870.24876	-712.31926	-415.70410	881.62068	-504.73791	-424.43231	881.69887	-676.76029	
